<svg width="29" height="28" viewBox="0 0 29 28" fill="none" xmlns="http://www.w3.org/2000/svg">
<g clip-path="url(#clip0_227_1585)">
<path d="M28.7472 8.23208C28.6816 6.74433 28.441 5.72152 28.0963 4.83523C27.7408 3.89447 27.1938 3.0522 26.4772 2.35202C25.777 1.64095 24.9292 1.08841 23.9993 0.738425C23.1079 0.393784 22.0904 0.153198 20.6027 0.0876025C19.1038 0.0164522 18.628 0 14.8265 0C11.0249 0 10.5491 0.0164522 9.05581 0.0820473C7.56806 0.147642 6.54525 0.388443 5.65918 0.73287C4.7182 1.08841 3.87593 1.63539 3.17575 2.35202C2.46468 3.0522 1.91235 3.90002 1.56216 4.82989C1.21751 5.72152 0.976928 6.73877 0.911333 8.22652C0.840183 9.72538 0.82373 10.2012 0.82373 14.0027C0.82373 17.8043 0.840183 18.2801 0.905778 19.7734C0.971373 21.2611 1.21217 22.284 1.55681 23.1702C1.91235 24.111 2.46468 24.9533 3.17575 25.6534C3.87593 26.3645 4.72375 26.9171 5.65362 27.267C6.54525 27.6117 7.56251 27.8523 9.05047 27.9179C10.5436 27.9837 11.0196 27.9999 14.8211 27.9999C18.6227 27.9999 19.0985 27.9837 20.5918 27.9179C22.0795 27.8523 23.1023 27.6117 23.9884 27.267C25.8702 26.5395 27.3579 25.0518 28.0854 23.1702C28.4299 22.2786 28.6707 21.2611 28.7363 19.7734C28.8019 18.2801 28.8183 17.8043 28.8183 14.0027C28.8183 10.2012 28.8128 9.72538 28.7472 8.23208ZM26.2257 19.664C26.1654 21.0315 25.9358 21.7699 25.7443 22.2622C25.2738 23.482 24.3057 24.4501 23.0859 24.9206C22.5936 25.112 21.8498 25.3417 20.4877 25.4018C19.0109 25.4676 18.568 25.4838 14.832 25.4838C11.0961 25.4838 10.6476 25.4676 9.1761 25.4018C7.80865 25.3417 7.07022 25.112 6.57794 24.9206C5.97092 24.6962 5.41838 24.3407 4.9699 23.8758C4.50496 23.4217 4.14942 22.8747 3.92508 22.2677C3.73363 21.7754 3.50394 21.0315 3.4439 19.6696C3.37809 18.1927 3.36185 17.7496 3.36185 14.0136C3.36185 10.2777 3.37809 9.82922 3.4439 8.35793C3.50394 6.99047 3.73363 6.25205 3.92508 5.75976C4.14942 5.15253 4.50496 4.6002 4.97545 4.15151C5.42928 3.68657 5.97626 3.33103 6.58349 3.1069C7.07578 2.91546 7.81976 2.68577 9.18166 2.62551C10.6585 2.55992 11.1016 2.54347 14.8374 2.54347C18.5788 2.54347 19.0218 2.55992 20.4933 2.62551C21.8607 2.68577 22.5992 2.91546 23.0914 3.1069C23.6985 3.33103 24.251 3.68657 24.6995 4.15151C25.1644 4.60554 25.52 5.15253 25.7443 5.75976C25.9358 6.25205 26.1654 6.99581 26.2257 8.35793C26.2913 9.83478 26.3077 10.2777 26.3077 14.0136C26.3077 17.7496 26.2913 18.1871 26.2257 19.664Z" fill="black"/>
<path d="M14.8261 6.80981C10.8552 6.80981 7.6333 10.0315 7.6333 14.0026C7.6333 17.9738 10.8552 21.1954 14.8261 21.1954C18.7973 21.1954 22.0189 17.9738 22.0189 14.0026C22.0189 10.0315 18.7973 6.80981 14.8261 6.80981ZM14.8261 18.6684C12.25 18.6684 10.1603 16.579 10.1603 14.0026C10.1603 11.4263 12.25 9.33683 14.8261 9.33683C17.4025 9.33683 19.4919 11.4263 19.4919 14.0026C19.4919 16.579 17.4025 18.6684 14.8261 18.6684Z" fill="black"/>
<path d="M23.9831 6.52563C23.9831 7.45293 23.2312 8.20482 22.3037 8.20482C21.3764 8.20482 20.6245 7.45293 20.6245 6.52563C20.6245 5.59811 21.3764 4.84644 22.3037 4.84644C23.2312 4.84644 23.9831 5.59811 23.9831 6.52563Z" fill="black"/>
</g>
<defs>
<clipPath id="clip0_227_1585">
<rect width="28" height="28" fill="white" transform="translate(0.774414)"/>
</clipPath>
</defs>
</svg>
