<svg width="29" height="28" viewBox="0 0 29 28" fill="none" xmlns="http://www.w3.org/2000/svg">
<g clip-path="url(#clip0_227_1581)">
<path fill-rule="evenodd" clip-rule="evenodd" d="M24.0983 4.71461C26.557 7.17042 27.9116 10.4364 27.9131 13.9159C27.9131 21.0856 22.0781 26.9207 14.9065 26.9236C12.6139 26.9246 10.376 26.3257 8.40343 25.1873L1.66309 27.0327L3.47194 20.1371C2.43549 18.2371 1.88931 16.098 1.88867 13.9212L1.88867 13.9157C1.88867 6.7468 7.72411 0.911048 14.8961 0.908324C18.3718 0.906882 21.6398 2.25863 24.0983 4.71461ZM4.08541 13.9159L4.08541 13.9204C4.08621 15.8603 4.60756 17.7629 5.59242 19.423L5.82681 19.8177L4.75336 23.9096L8.74293 22.8174L9.15196 23.0745C10.8733 24.1568 12.8629 24.7283 14.9057 24.7273C20.8666 24.7251 25.7162 19.875 25.7162 13.9116C25.7152 11.0238 24.5892 8.30924 22.5456 6.26807C20.5021 4.2269 17.7858 3.10346 14.8969 3.10442C8.93551 3.10699 4.08541 7.95676 4.08541 13.9159ZM12.1826 7.9856C12.3454 8.31052 13.1314 9.90853 13.2401 10.2065C13.3485 10.5042 13.4025 10.7212 13.0773 10.9376C12.752 11.1544 12.0199 11.7771 11.8031 11.9668C11.5861 12.1565 11.5589 12.3459 11.7217 12.671C11.8843 12.9961 12.2277 14.0433 13.3349 15.2848C14.1967 16.2509 15.261 16.9031 15.5863 17.0928C15.9119 17.2822 16.0708 17.0944 16.2496 16.9502C16.6865 16.5984 17.1446 16.2461 17.3613 16.1378C17.5783 16.0293 17.7681 16.0836 17.9307 16.165C18.0934 16.2461 19.6931 16.8961 20.3441 17.1669C20.9776 17.4309 20.892 17.6986 20.902 17.8982C20.9114 18.0876 20.9134 18.3044 20.9134 18.5212C20.9134 18.7378 20.8321 19.0899 20.5066 19.3879C20.1812 19.6858 19.395 20.5253 17.7952 20.5253C16.1954 20.5253 14.65 19.3607 14.433 19.1982C14.2161 19.0358 10.9333 16.9063 9.52559 13.6461C9.19042 12.8706 8.99062 12.2653 8.84082 11.7932C8.59345 11.0145 8.62837 10.3062 8.71201 9.74607C8.80541 9.12154 9.49835 7.8233 10.2575 7.55221C11.0167 7.28145 11.6674 7.28145 11.8031 7.36284C11.9386 7.44391 12.0199 7.66068 12.1826 7.9856Z" fill="black"/>
</g>
<defs>
<clipPath id="clip0_227_1581">
<rect width="28" height="28" fill="white" transform="matrix(-4.37114e-08 -1 -1 4.37114e-08 28.7744 28)"/>
</clipPath>
</defs>
</svg>
